<?xml version="1.0" encoding="utf-8"?>
<!-- Generator: Adobe Illustrator 24.1.2, SVG Export Plug-In . SVG Version: 6.00 Build 0)  -->
<svg version="1.1" id="Layer_1" xmlns="http://www.w3.org/2000/svg" xmlns:xlink="http://www.w3.org/1999/xlink" x="0px" y="0px"
	 viewBox="0 0 32 32" style="enable-background:new 0 0 32 32;" xml:space="preserve">
<style type="text/css">
	.st0{fill:#FBB03B;}
	.st1{fill:#FFFFFF;}
</style>
<g>
	<g>
		<g>
			<path class="st0" d="M31.05,16.34c0,8.47-6.87,15.34-15.34,15.34c-8.47,0-15.34-6.87-15.34-15.34C0.37,7.87,7.24,1,15.71,1
				C24.18,1,31.05,7.87,31.05,16.34z"/>
		</g>
	</g>
</g>
<path class="st1" d="M4.53,7.68C4.53,7.31,4.84,7,5.21,7h0.91C7.1,7,7.96,7.67,8.2,8.62v0c0.16,0.65,0.75,1.11,1.42,1.11h14.7
	c0.38,0,0.68,0.31,0.68,0.68c0,0.04,0,0.08-0.01,0.12l-1.82,9.73c-0.19,1.01-1.08,1.75-2.11,1.75H11.2c-1.03,0-1.91-0.73-2.11-1.75
	L7.28,10.6c-0.01-0.03-0.01-0.06-0.02-0.08L6.73,8.36H5.21C4.84,8.36,4.53,8.06,4.53,7.68z M9.09,12.82l1.24,6.63
	c0.13,0.69,0.73,1.19,1.44,1.19h8.73c0.7,0,1.31-0.5,1.44-1.19l1.24-6.63c0.17-0.9-0.52-1.73-1.44-1.73H10.52
	C9.61,11.09,8.92,11.92,9.09,12.82z M11.35,22.01c-1.51,0-2.73,1.22-2.73,2.73c0,1.51,1.22,2.73,2.73,2.73s2.73-1.22,2.73-2.73
	C14.08,23.23,12.86,22.01,11.35,22.01z M20.91,22.01c-1.51,0-2.73,1.22-2.73,2.73c0,1.51,1.22,2.73,2.73,2.73
	c1.51,0,2.73-1.22,2.73-2.73C23.64,23.23,22.41,22.01,20.91,22.01z M11.35,23.38c0.75,0,1.36,0.61,1.36,1.36s-0.61,1.36-1.36,1.36
	c-0.75,0-1.36-0.61-1.36-1.36S10.6,23.38,11.35,23.38z M20.91,23.38c0.75,0,1.36,0.61,1.36,1.36s-0.61,1.36-1.36,1.36
	s-1.36-0.61-1.36-1.36S20.15,23.38,20.91,23.38z"/>
</svg>
