<?xml version="1.0" encoding="utf-8"?>
<!-- Generator: Adobe Illustrator 24.1.2, SVG Export Plug-In . SVG Version: 6.00 Build 0)  -->
<svg version="1.1" id="Layer_1" xmlns="http://www.w3.org/2000/svg" xmlns:xlink="http://www.w3.org/1999/xlink" x="0px" y="0px"
	 viewBox="0 0 32 32" style="enable-background:new 0 0 32 32;" xml:space="preserve">
<style type="text/css">
	.st0{fill:#FBB03B;}
	.st1{fill:#FFFFFF;}
</style>
<g>
	<g>
		<g>
			<path class="st0" d="M31.05,16.34c0,8.47-6.87,15.34-15.34,15.34c-8.47,0-15.34-6.87-15.34-15.34C0.37,7.87,7.24,1,15.71,1
				C24.18,1,31.05,7.87,31.05,16.34z"/>
		</g>
	</g>
</g>
<path class="st1" d="M21,19.15c2.81-3.83,1.98-9.21-1.85-12.01S9.94,5.16,7.13,8.99S5.16,18.2,8.99,21c3.03,2.22,7.14,2.22,10.17,0
	h0c0.04,0.05,0.08,0.1,0.13,0.15l5.09,5.09c0.52,0.52,1.35,0.52,1.87,0c0.52-0.52,0.52-1.35,0-1.87l-5.09-5.09
	C21.1,19.23,21.05,19.19,21,19.15L21,19.15z M21.34,14.07c0,4.02-3.26,7.27-7.27,7.27s-7.27-3.26-7.27-7.27s3.26-7.27,7.27-7.27
	S21.34,10.05,21.34,14.07z"/>
</svg>
